<?xml version="1.0" encoding="iso-8859-1"?>
<!-- Generator: Adobe Illustrator 16.0.0, SVG Export Plug-In . SVG Version: 6.00 Build 0)  -->
<!DOCTYPE svg PUBLIC "-//W3C//DTD SVG 1.1//EN" "http://www.w3.org/Graphics/SVG/1.1/DTD/svg11.dtd">
<svg version="1.1" id="Capa_1" xmlns="http://www.w3.org/2000/svg" xmlns:xlink="http://www.w3.org/1999/xlink" x="0px" y="0px"
	 width="612px" height="612px" viewBox="0 0 612 612" style="enable-background:new 0 0 612 612;" xml:space="preserve">
<g>
	<g>
		<path d="M499.641,320.573c-12.207-3.251-25.021-5.011-38.25-5.011c-1.602,0-3.189,0.071-4.781,0.119
			c-78.843,2.506-142.118,66.556-143.375,145.709c-0.015,0.799-0.062,1.587-0.062,2.391c0,15.85,2.515,31.102,7.119,45.422
			C339.474,568.835,395.381,612,461.391,612c81.859,0,148.219-66.359,148.219-148.219
			C609.609,395.151,562.954,337.441,499.641,320.573z M461.391,561.797c-54.133,0-98.016-43.883-98.016-98.016
			s43.883-98.016,98.016-98.016s98.016,43.883,98.016,98.016S515.523,561.797,461.391,561.797z"/>
		<polygon points="475.734,396.844 442.266,396.844 442.266,449.438 389.672,449.438 389.672,482.906 442.266,482.906 
			442.266,535.5 475.734,535.5 475.734,482.906 528.328,482.906 528.328,449.438 475.734,449.438 		"/>
		<path d="M126.703,112.359c9.228,0,16.734-7.507,16.734-16.734V54.984v-38.25C143.438,7.507,135.931,0,126.703,0h-14.344
			c-9.228,0-16.734,7.507-16.734,16.734v38.25v40.641c0,9.228,7.506,16.734,16.734,16.734H126.703z"/>
		<path d="M389.672,112.359c9.228,0,16.734-7.507,16.734-16.734V54.984v-38.25C406.406,7.507,398.899,0,389.672,0h-14.344
			c-9.228,0-16.734,7.507-16.734,16.734v38.25v40.641c0,9.228,7.507,16.734,16.734,16.734H389.672z"/>
		<path d="M274.922,494.859c-2.333-11.6-3.572-23.586-3.572-35.859c0-4.021,0.177-7.999,0.435-11.953H74.109
			c-15.845,0-28.688-12.843-28.688-28.688v-229.5h411.188v88.707c3.165-0.163,6.354-0.253,9.562-0.253
			c11.437,0,22.61,1.109,33.469,3.141V93.234c0-21.124-17.126-38.25-38.25-38.25h-31.078v40.641c0,22.41-18.23,40.641-40.641,40.641
			h-14.344c-22.41,0-40.641-18.231-40.641-40.641V54.984H167.344v40.641c0,22.41-18.231,40.641-40.641,40.641h-14.344
			c-22.41,0-40.641-18.231-40.641-40.641V54.984H40.641c-21.124,0-38.25,17.126-38.25,38.25v363.375
			c0,21.124,17.126,38.25,38.25,38.25H274.922z"/>
		<circle cx="137.165" cy="260.578" r="37.954"/>
		<circle cx="251.016" cy="260.578" r="37.954"/>
		<circle cx="364.867" cy="260.578" r="37.954"/>
		<circle cx="251.016" cy="375.328" r="37.953"/>
		<circle cx="137.165" cy="375.328" r="37.953"/>
	</g>
</g>
<g>
</g>
<g>
</g>
<g>
</g>
<g>
</g>
<g>
</g>
<g>
</g>
<g>
</g>
<g>
</g>
<g>
</g>
<g>
</g>
<g>
</g>
<g>
</g>
<g>
</g>
<g>
</g>
<g>
</g>
</svg>
